<?xml version="1.0" encoding="UTF-8"?>
<svg xmlns="http://www.w3.org/2000/svg" xmlns:xlink="http://www.w3.org/1999/xlink" width="30px" height="30px" viewBox="0 0 30 30" version="1.1">
<g id="surface1">
<path style=" stroke:none;fill-rule:nonzero;fill:rgb(0%,0%,0%);fill-opacity:1;" d="M 10.035156 23.285156 C 10.035156 23.402344 9.894531 23.496094 9.71875 23.496094 C 9.519531 23.515625 9.382812 23.421875 9.382812 23.285156 C 9.382812 23.167969 9.519531 23.074219 9.695312 23.074219 C 9.878906 23.054688 10.035156 23.148438 10.035156 23.285156 Z M 8.152344 23.023438 C 8.109375 23.140625 8.230469 23.273438 8.414062 23.308594 C 8.570312 23.367188 8.753906 23.308594 8.789062 23.191406 C 8.824219 23.074219 8.710938 22.9375 8.527344 22.886719 C 8.371094 22.84375 8.195312 22.90625 8.152344 23.023438 Z M 10.828125 22.921875 C 10.652344 22.960938 10.53125 23.074219 10.546875 23.207031 C 10.566406 23.324219 10.722656 23.402344 10.90625 23.359375 C 11.082031 23.320312 11.203125 23.207031 11.183594 23.089844 C 11.164062 22.980469 11.003906 22.90625 10.828125 22.921875 Z M 14.804688 0.46875 C 6.417969 0.46875 0 6.640625 0 14.765625 C 0 21.265625 4.222656 26.824219 10.253906 28.78125 C 11.027344 28.914062 11.296875 28.453125 11.296875 28.070312 C 11.296875 27.710938 11.28125 25.703125 11.28125 24.476562 C 11.28125 24.476562 7.046875 25.351562 6.15625 22.726562 C 6.15625 22.726562 5.46875 21.023438 4.476562 20.582031 C 4.476562 20.582031 3.089844 19.664062 4.574219 19.679688 C 4.574219 19.679688 6.078125 19.796875 6.90625 21.195312 C 8.230469 23.453125 10.453125 22.804688 11.316406 22.417969 C 11.457031 21.480469 11.847656 20.828125 12.285156 20.445312 C 8.902344 20.078125 5.492188 19.605469 5.492188 13.96875 C 5.492188 12.355469 5.953125 11.546875 6.917969 10.515625 C 6.761719 10.136719 6.246094 8.566406 7.078125 6.539062 C 8.339844 6.15625 11.25 8.121094 11.25 8.121094 C 12.460938 7.792969 13.761719 7.621094 15.046875 7.621094 C 16.335938 7.621094 17.636719 7.792969 18.847656 8.121094 C 18.847656 8.121094 21.757812 6.152344 23.019531 6.539062 C 23.847656 8.570312 23.335938 10.136719 23.175781 10.515625 C 24.144531 11.554688 24.738281 12.363281 24.738281 13.96875 C 24.738281 19.625 21.175781 20.074219 17.792969 20.445312 C 18.351562 20.90625 18.824219 21.785156 18.824219 23.160156 C 18.824219 25.136719 18.804688 27.578125 18.804688 28.0625 C 18.804688 28.441406 19.082031 28.902344 19.851562 28.769531 C 25.898438 26.824219 30 21.265625 30 14.765625 C 30 6.640625 23.195312 0.46875 14.804688 0.46875 Z M 5.878906 20.679688 C 5.800781 20.734375 5.820312 20.871094 5.921875 20.980469 C 6.019531 21.078125 6.15625 21.117188 6.234375 21.039062 C 6.316406 20.980469 6.296875 20.847656 6.195312 20.734375 C 6.097656 20.640625 5.957031 20.601562 5.878906 20.679688 Z M 5.226562 20.203125 C 5.183594 20.277344 5.242188 20.371094 5.363281 20.429688 C 5.460938 20.488281 5.582031 20.472656 5.625 20.390625 C 5.667969 20.3125 5.605469 20.21875 5.484375 20.160156 C 5.363281 20.125 5.269531 20.144531 5.226562 20.203125 Z M 7.183594 22.289062 C 7.089844 22.367188 7.125 22.539062 7.265625 22.652344 C 7.402344 22.789062 7.578125 22.804688 7.65625 22.710938 C 7.734375 22.632812 7.699219 22.457031 7.578125 22.347656 C 7.445312 22.210938 7.265625 22.195312 7.183594 22.289062 Z M 6.496094 21.429688 C 6.398438 21.484375 6.398438 21.640625 6.496094 21.773438 C 6.59375 21.90625 6.757812 21.96875 6.835938 21.90625 C 6.929688 21.832031 6.929688 21.679688 6.835938 21.546875 C 6.75 21.410156 6.59375 21.351562 6.496094 21.429688 Z M 6.496094 21.429688 "/>
</g>
</svg>
