<?xml version="1.0" encoding="UTF-8"?>
<svg xmlns="http://www.w3.org/2000/svg" xmlns:xlink="http://www.w3.org/1999/xlink" width="30px" height="30px" viewBox="0 0 30 30" version="1.1">
<g id="surface1">
<path style=" stroke:none;fill-rule:nonzero;fill:rgb(0%,0%,0%);fill-opacity:1;" d="M 27.855469 1.875 L 2.136719 1.875 C 0.957031 1.875 0 2.726562 0 3.765625 L 0 26.234375 C 0 27.273438 0.957031 28.125 2.136719 28.125 L 27.855469 28.125 C 29.035156 28.125 30 27.273438 30 26.234375 L 30 3.765625 C 30 2.726562 29.035156 1.875 27.855469 1.875 Z M 9.066406 24.375 L 4.621094 24.375 L 4.621094 11.847656 L 9.074219 11.847656 L 9.074219 24.375 Z M 6.84375 10.136719 C 5.417969 10.136719 4.265625 9.125 4.265625 7.882812 C 4.265625 6.640625 5.417969 5.625 6.84375 5.625 C 8.261719 5.625 9.421875 6.640625 9.421875 7.882812 C 9.421875 9.128906 8.269531 10.136719 6.84375 10.136719 Z M 25.734375 24.375 L 21.289062 24.375 L 21.289062 18.28125 C 21.289062 16.828125 21.253906 14.960938 18.976562 14.960938 C 16.660156 14.960938 16.304688 16.539062 16.304688 18.175781 L 16.304688 24.375 L 11.859375 24.375 L 11.859375 11.847656 L 16.125 11.847656 L 16.125 13.558594 L 16.183594 13.558594 C 16.78125 12.574219 18.234375 11.535156 20.398438 11.535156 C 24.898438 11.535156 25.734375 14.132812 25.734375 17.507812 Z M 25.734375 24.375 "/>
</g>
</svg>
